<mxfile host="65bd71144e">
    <diagram id="EUx1EW7_RF-HWwTkC6a_" name="Page-1">
        <mxGraphModel dx="2408" dy="1580" grid="1" gridSize="10" guides="1" tooltips="1" connect="1" arrows="1" fold="1" page="1" pageScale="1" pageWidth="1654" pageHeight="1169" math="0" shadow="0">
            <root>
                <mxCell id="0"/>
                <mxCell id="1" parent="0"/>
                <mxCell id="2" value="&lt;font style=&quot;font-size: 50px&quot;&gt;Pokestack&lt;/font&gt;" style="rounded=1;whiteSpace=wrap;html=1;" vertex="1" parent="1">
                    <mxGeometry x="650" y="290" width="400" height="170" as="geometry"/>
                </mxCell>
                <mxCell id="5" style="edgeStyle=none;html=1;exitX=0.75;exitY=1;exitDx=0;exitDy=0;entryX=0;entryY=0;entryDx=0;entryDy=0;fontSize=50;" edge="1" parent="1" source="3" target="2">
                    <mxGeometry relative="1" as="geometry"/>
                </mxCell>
                <mxCell id="3" value="&lt;font style=&quot;font-size: 40px&quot;&gt;PokeAPI&lt;/font&gt;" style="rounded=0;whiteSpace=wrap;html=1;fontSize=50;" vertex="1" parent="1">
                    <mxGeometry x="360" y="140" width="280" height="101.11" as="geometry"/>
                </mxCell>
                <mxCell id="6" style="edgeStyle=none;html=1;exitX=0.25;exitY=1;exitDx=0;exitDy=0;entryX=1;entryY=0;entryDx=0;entryDy=0;fontSize=50;" edge="1" parent="1" source="4" target="2">
                    <mxGeometry relative="1" as="geometry"/>
                </mxCell>
                <mxCell id="4" value="&lt;font style=&quot;font-size: 40px&quot;&gt;Google API&lt;/font&gt;" style="rounded=0;whiteSpace=wrap;html=1;fontSize=50;" vertex="1" parent="1">
                    <mxGeometry x="1060" y="140" width="276.92" height="100" as="geometry"/>
                </mxCell>
                <mxCell id="7" value="Db-service" style="rounded=0;whiteSpace=wrap;html=1;fontSize=50;" vertex="1" parent="1">
                    <mxGeometry x="670" y="550" width="360" height="130" as="geometry"/>
                </mxCell>
                <mxCell id="8" value="&lt;font&gt;&lt;span style=&quot;font-size: 21px&quot;&gt;PokestackDatabase&lt;/span&gt;&lt;br&gt;&lt;font style=&quot;font-size: 44px&quot;&gt;SQLite&lt;/font&gt;&lt;br&gt;&lt;/font&gt;" style="shape=cylinder3;whiteSpace=wrap;html=1;boundedLbl=1;backgroundOutline=1;size=15;fontSize=50;" vertex="1" parent="1">
                    <mxGeometry x="747" y="763" width="203" height="180" as="geometry"/>
                </mxCell>
                <mxCell id="9" value="" style="shape=flexArrow;endArrow=classic;startArrow=classic;html=1;fontSize=44;entryX=0.5;entryY=1;entryDx=0;entryDy=0;exitX=0.5;exitY=0;exitDx=0;exitDy=0;exitPerimeter=0;" edge="1" parent="1" source="8" target="7">
                    <mxGeometry width="100" height="100" relative="1" as="geometry">
                        <mxPoint x="770" y="800" as="sourcePoint"/>
                        <mxPoint x="870" y="700" as="targetPoint"/>
                    </mxGeometry>
                </mxCell>
                <mxCell id="10" value="" style="endArrow=classic;startArrow=classic;html=1;fontSize=44;entryX=0.5;entryY=1;entryDx=0;entryDy=0;exitX=0.5;exitY=0;exitDx=0;exitDy=0;" edge="1" parent="1" source="7" target="2">
                    <mxGeometry width="50" height="50" relative="1" as="geometry">
                        <mxPoint x="550" y="520" as="sourcePoint"/>
                        <mxPoint x="600" y="470" as="targetPoint"/>
                    </mxGeometry>
                </mxCell>
            </root>
        </mxGraphModel>
    </diagram>
</mxfile>